<svg id="Layer_1" data-name="Layer 1" xmlns="http://www.w3.org/2000/svg" viewBox="0 0 768.04 184.02"><defs><style>.cls-1{fill:#0c2c3d;}.cls-2{fill:#0e2d3e;}.cls-3{fill:#0d2c3d;}.cls-4{fill:#0f2e3e;}.cls-5{fill:#0d2d3d;}</style></defs><path class="cls-1" d="M231.62,160h-69c-.93-1.11,0-1.9.4-2.63,4.57-8.06,9.27-16.06,13.8-24.15,4.44-7.94,8.85-15.92,13-24a93.88,93.88,0,0,0,4.79-11.48,19.54,19.54,0,0,0,1-6.09,3.41,3.41,0,0,0-4-3.66,18,18,0,0,0-5.08,1.28A97.35,97.35,0,0,0,177,93.83a237.69,237.69,0,0,0-23.14,15.4c-7.48,5.48-14.83,11.14-22.35,16.57-13.75,9.93-28,19.11-43.22,26.62-8,4-16.25,7.49-25,9.44a51.29,51.29,0,0,1-8.52,1.3,26.27,26.27,0,0,1-7.11-.7c-5.15-1.23-7.88-4.76-7.69-10.09a31.25,31.25,0,0,1,1.42-7.49A48,48,0,0,1,47,133.26a139,139,0,0,1,14.81-19.43c4.68-5.25,9.54-10.36,14-15.78,3.76-4.56,7.2-9.39,10.54-14.26a44,44,0,0,0,3.57-7.29,9.72,9.72,0,0,0,.72-3.25c.16-2.64-1-4.17-3.49-5A13.26,13.26,0,0,0,81,67.8a76.1,76.1,0,0,0-13,3.1,234.08,234.08,0,0,0-27.9,11.44C38.64,83,37.2,83.64,36,84.2c-.45-.13-.64-.13-.72-.22a.71.71,0,0,1-.14-.45c0-20,0-40,0-59.84,1.11-1.27,2.46-.88,3.67-.88,9.28,0,18.56,0,27.83,0q26.88,0,53.75,0a44,44,0,0,1,6.69.43,15.35,15.35,0,0,1,4.5,1.48,6.47,6.47,0,0,1,3.58,5.35,16.19,16.19,0,0,1-.91,7.07,49.28,49.28,0,0,1-5.84,11.51q-8.44,12.81-17,25.55A122.65,122.65,0,0,0,101,92a49.42,49.42,0,0,0-3.16,9c-1.46,6.36,1.76,9.54,8.23,8.27a31.23,31.23,0,0,0,6.86-2.07,122.91,122.91,0,0,0,12.84-6.41c22.48-13.47,44.87-27.11,67.3-40.66q11.69-7.07,23.46-14a30.09,30.09,0,0,1,12.2-4c6.88-.69,11.71,1.92,14.93,8.07a32.29,32.29,0,0,1,3.26,11,96.93,96.93,0,0,1,.65,18.19c-1.22,20.69-5.5,40.83-10.61,60.83C235.35,146.7,233.48,153.13,231.62,160Z"/><path class="cls-2" d="M582.16,147.36h-15.3c-1.55-2.39-2.07-5.09-3-7.59s-1.87-5.09-2.8-7.64-1.86-5.1-2.78-7.65-1.72-4.81-2.58-7.22-1.73-5.15-2.77-7.65-1.41-5.11-3.59-8.17c-.1,8.49,0,16-.06,23.4s0,14.7,0,22.17a6.92,6.92,0,0,1-1.86.65q-13.67,0-27.33,0a5.24,5.24,0,0,1-1.37-.4,5.3,5.3,0,0,1-.4-1.38q0-53.23,0-106.46a5.16,5.16,0,0,1,.42-1.38,7.38,7.38,0,0,1,1.4-.28q12.46,0,24.93,0c4.18,0,6.88,2,8.34,5.9,3.45,9.28,7,18.52,10.48,27.78,3,7.92,6,15.84,9,23.75.43,1.13,1.07,2.18,1.88,3.82.73-1.72,1.25-2.82,1.68-3.95q9.14-23.94,18.25-47.89c.34-.89.67-1.79,1-2.68,2.08-5.31,4-6.7,9.68-6.72,8.15,0,16.29,0,24.7,0a27,27,0,0,1,.42,3.31q0,51.8,0,103.59c0,.79-.09,1.57-.16,2.57a7.62,7.62,0,0,1-1.79.46q-13.42,0-26.85,0a7.17,7.17,0,0,1-1.35-.24c-1.21-1.05-.76-2.41-.76-3.62q0-18.23,0-36.45v-4.94c-1.55.31-1.61,1.51-1.93,2.4q-6.86,18.92-13.64,37.84C583.43,144.16,582.83,145.62,582.16,147.36Z"/><path class="cls-3" d="M358.82,67.75c-2.42-.55-4.62-.24-6.78-.29s-4.48,0-6.72,0H312.14c-.87-3.38-.38-6.57-.46-9.71-.09-3.36,0-6.72,0-10.07,0-3.16-.15-6.33.13-9.4,4-.63,83.55-.77,89.7-.17a23.67,23.67,0,0,1,.27,2.62c0,5.44-.1,10.87,0,16.31.13,7.29-2.56,13.33-7.57,18.54-11.19,11.63-22.3,23.35-33.45,35L354.62,117c.59,1.61,1.71,1.1,2.55,1.1q19.66.06,39.33,0h4.9c.7,2.61.31,5,.37,7.33.07,2.56,0,5.12,0,7.68,0,2.4,0,4.8,0,7.19s.32,4.74-.28,7c-4.34.64-85.22.65-89.55,0a24.23,24.23,0,0,1-.27-2.65c0-5.12.05-10.24,0-15.35a26.26,26.26,0,0,1,7.72-19.47c12.2-12.67,24.27-25.46,36.37-38.22C356.79,70.57,358.12,69.65,358.82,67.75Z"/><path class="cls-4" d="M415.6,38.3c.57-.25.85-.48,1.13-.48,7.2,0,14.39-.16,21.58,0,5,.08,7.91,3.09,8.22,8.14.07,1.11,0,2.24,0,3.36v52.29c0,1.27.07,2.56,0,3.83-.51,8.3,7.76,15.22,17,13.51a13.63,13.63,0,0,0,11.37-13.42c-.16-14.87-.05-29.75,0-44.62,0-4.31,0-8.63,0-12.95a21.79,21.79,0,0,1,.17-3.34,7.71,7.71,0,0,1,7.5-6.81c1.11-.08,2.24,0,3.36,0,5.91,0,11.83,0,17.75,0a14.61,14.61,0,0,1,1.79.21c1,1.6.58,3.24.58,4.79,0,20.3-.11,40.61.06,60.92a43.94,43.94,0,0,1-29.6,41.75c-17.33,5.68-33.2,2.9-46.93-9.3-9.44-8.39-14.1-19.23-14.17-31.89-.09-16.15,0-32.3,0-48.45,0-4.8,0-9.59,0-14.39C415.39,40.31,415.53,39.23,415.6,38.3Z"/><path class="cls-5" d="M669.53,38c7.26-.51,34.27-.37,37.8.17,3.15,9.52,28.63,105.46,28.95,109-3.4.65-18.52.83-26.44.28a30.17,30.17,0,0,1-1.11-2.94c-1.31-4.6-2.54-9.23-3.84-13.83-1.26-4.42-2.55-5.44-7.12-5.48-6.23,0-12.46,0-18.69,0-.32,0-.64,0-1,0-3.45.21-4.86,1.25-5.83,4.58-1,3.52-1.93,7.08-2.91,10.61-.64,2.3-1.32,4.58-2,6.77-3.8.67-21.88.75-26.38.16-.06-.15-.14-.29-.19-.44a1,1,0,0,1-.1-.45Q655.11,92.31,669.53,38Zm26.08,58.75a22.83,22.83,0,0,0-.39-3q-3.11-11.49-6.3-23c-.07-.24-.48-.38-.88-.69-2.16,8.19-4.32,16.3-6.44,24.42a20.8,20.8,0,0,0-.26,2.5C686.27,96.83,690.84,97.27,695.61,96.75Z"/></svg>